<svg width="18" height="18" viewBox="0 0 18 18" fill="none" xmlns="http://www.w3.org/2000/svg">
<g clip-path="url(#clip0_1_104)">
<path d="M18 3.731C17.337 4.024 16.626 4.223 15.879 4.312C16.641 3.855 17.227 3.131 17.502 2.27C16.79 2.693 15.999 3 15.158 3.165C14.484 2.448 13.523 2 12.462 2C10.423 2 8.76898 3.652 8.76898 5.692C8.76898 5.981 8.80098 6.263 8.86498 6.534C5.79498 6.379 3.07398 4.909 1.25298 2.676C0.934977 3.221 0.752977 3.856 0.752977 4.531C0.752977 5.813 1.40498 6.943 2.39598 7.605C1.79098 7.586 1.22098 7.42 0.722977 7.144C0.722977 7.159 0.722977 7.174 0.722977 7.19C0.722977 8.979 1.99598 10.473 3.68498 10.811C3.37498 10.895 3.04898 10.94 2.71198 10.94C2.47498 10.94 2.24298 10.919 2.01798 10.875C2.48698 12.343 3.85198 13.41 5.46698 13.44C4.20398 14.43 2.61198 15.02 0.881977 15.02C0.582977 15.02 0.289977 15.002 0.000976562 14.967C1.63498 16.016 3.57598 16.626 5.66198 16.626C12.454 16.626 16.169 10.999 16.169 6.12C16.169 5.959 16.165 5.799 16.157 5.641C16.878 5.123 17.505 4.472 18 3.731Z" fill="black"/>
</g>
<defs>
<clipPath id="clip0_1_104">
<rect width="18" height="18" fill="white"/>
</clipPath>
</defs>
</svg>
