<svg width="16" height="16" viewBox="0 0 16 16" fill="none" xmlns="http://www.w3.org/2000/svg">
<g clip-path="url(#clip0_1_26)">
<path d="M16 3.31645C15.4106 3.57689 14.7786 3.75378 14.1146 3.83289C14.792 3.42667 15.312 2.78311 15.5573 2.01778C14.9244 2.39378 14.2213 2.66667 13.4737 2.81333C12.8746 2.176 12.0213 1.77778 11.0773 1.77778C9.26485 1.77778 7.79463 3.24622 7.79463 5.05956C7.79463 5.31645 7.82308 5.56711 7.87996 5.808C5.15108 5.67022 2.73241 4.36356 1.11374 2.37867C0.831077 2.86311 0.669299 3.42756 0.669299 4.02756C0.669299 5.16711 1.24885 6.17156 2.12974 6.76C1.59197 6.74311 1.0853 6.59556 0.642632 6.35022C0.642632 6.36356 0.642632 6.37689 0.642632 6.39111C0.642632 7.98133 1.77419 9.30845 3.27552 9.60978C2.99997 9.68445 2.71019 9.72444 2.41063 9.72444C2.19997 9.72444 1.99374 9.70489 1.79374 9.66578C2.21063 10.9707 3.42397 11.9191 4.85952 11.9458C3.73685 12.8267 2.32174 13.3511 0.783966 13.3511C0.518188 13.3511 0.257743 13.3351 0.000854492 13.304C1.4533 14.2356 3.17863 14.7787 5.03285 14.7787C11.0702 14.7787 14.3724 9.77689 14.3724 5.44C14.3724 5.29689 14.3689 5.15467 14.3617 5.01422C15.0026 4.55378 15.56 3.97511 16 3.31645Z" fill="white"/>
</g>
<defs>
<clipPath id="clip0_1_26">
<rect width="16" height="16" fill="white"/>
</clipPath>
</defs>
</svg>
